<svg width="37" height="41" viewBox="0 0 37 41" fill="none" xmlns="http://www.w3.org/2000/svg">
<path d="M35.7541 32.3327C34.5838 31.2894 33.5592 30.0933 32.7078 28.7767C31.7785 26.9593 31.2214 24.9746 31.0694 22.939V16.9436C31.0775 13.7464 29.9177 10.6563 27.808 8.25386C25.6984 5.85143 22.784 4.30208 19.6126 3.89689V2.33128C19.6126 1.90157 19.4419 1.48946 19.138 1.18561C18.8342 0.881761 18.4221 0.71106 17.9923 0.71106C17.5626 0.71106 17.1505 0.881761 16.8467 1.18561C16.5428 1.48946 16.3721 1.90157 16.3721 2.33128V3.92116C13.2291 4.35556 10.35 5.91428 8.26802 8.30863C6.18607 10.703 5.04238 13.7707 5.04878 16.9436V22.939C4.89678 24.9746 4.33974 26.9593 3.41035 28.7767C2.57401 30.0903 1.56584 31.2862 0.412641 32.3327C0.283183 32.4464 0.179428 32.5864 0.108279 32.7434C0.0371298 32.9003 0.00021821 33.0706 0 33.2429V34.8935C0 35.2154 0.127866 35.5241 0.35547 35.7517C0.583073 35.9793 0.89177 36.1071 1.21365 36.1071H34.9531C35.275 36.1071 35.5837 35.9793 35.8113 35.7517C36.0389 35.5241 36.1667 35.2154 36.1667 34.8935V33.2429C36.1665 33.0706 36.1296 32.9003 36.0585 32.7434C35.9873 32.5864 35.8836 32.4464 35.7541 32.3327ZM2.52439 33.6798C3.65358 32.589 4.64779 31.3666 5.48569 30.0389C6.6564 27.844 7.33946 25.4222 7.48822 22.939V16.9436C7.44008 15.5213 7.67867 14.1038 8.18976 12.7755C8.70085 11.4473 9.474 10.2355 10.4632 9.21231C11.4523 8.1891 12.6373 7.37541 13.9475 6.81969C15.2577 6.26397 16.6663 5.97758 18.0894 5.97758C19.5126 5.97758 20.9212 6.26397 22.2314 6.81969C23.5416 7.37541 24.7265 8.1891 25.7157 9.21231C26.7049 10.2355 27.478 11.4473 27.9891 12.7755C28.5002 14.1038 28.7388 15.5213 28.6907 16.9436V22.939C28.8394 25.4222 29.5225 27.844 30.6932 30.0389C31.5311 31.3666 32.5253 32.589 33.6545 33.6798H2.52439Z" fill="#375A52"/>
<path d="M18.1449 40.1595C18.9094 40.1418 19.6431 39.8544 20.2161 39.348C20.7892 38.8416 21.1646 38.1489 21.2761 37.3923H14.8923C15.007 38.1694 15.4 38.8785 15.9983 39.3875C16.5966 39.8965 17.3595 40.1708 18.1449 40.1595Z" fill="#375A52"/>
</svg>
