<svg width="39" height="48" viewBox="0 0 39 48" fill="none" xmlns="http://www.w3.org/2000/svg">
<path d="M38.728 7.63659L36.2143 5.14378V0.920906C36.2143 0.412406 35.7986 0 35.2857 0C34.7729 0 34.3571 0.412312 34.3571 0.920906V5.14378L31.8434 7.63659C31.6693 7.80938 31.5714 8.04356 31.5714 8.28778V25.8993H26V24.0576H28.6766C29.1894 24.0576 29.6596 23.5877 29.6596 23.0792C29.6596 17.8043 25.5357 13.403 20.4286 12.9358V6.44606C20.4286 5.93756 20.0128 5.52516 19.5 5.52516C18.9872 5.52516 18.5713 5.93747 18.5713 6.44606V12.9358C13.232 13.4029 9.23103 17.8043 9.23103 23.0792C9.23103 23.5877 9.59243 24.0576 10.1052 24.0576H13.9286V25.8993H7.42854V8.28778C7.42854 8.04356 7.3306 7.80938 7.15646 7.63659L4.64279 5.14378V0.920906C4.64288 0.412312 4.22712 0 3.71436 0C3.20161 0 2.78575 0.412312 2.78575 0.920906V5.14378L0.272071 7.63659C0.0979378 7.80938 0 8.04356 0 8.28778V42.3597V46.9641C0 47.4726 0.306765 48 0.819521 48H37.9624C38.4751 48 39 47.4726 39 46.9641V42.3597V8.28778C39 8.04347 38.9021 7.80938 38.728 7.63659ZM11.0851 22.2158C11.5485 18.072 15.0968 14.849 19.3911 14.849C23.6852 14.849 27.2336 18.072 27.697 22.2158H11.0851ZM24.1429 24.0576V25.8993H15.7858V24.0576H24.1429ZM37.1429 46.1583H1.85723V43.3957H37.143V46.1583H37.1429ZM37.1429 41.5539H1.85723V8.66916L3.71436 6.82744L5.5715 8.66916V26.7051C5.5715 27.2136 5.87826 27.741 6.39102 27.741H32.391C32.9037 27.741 33.4286 27.2136 33.4286 26.7051V8.66916L35.2857 6.82744L37.1429 8.66916V41.5539Z" fill="#B7A160"/>
</svg>
