<svg width="25" height="33" viewBox="0 0 25 33" fill="none" xmlns="http://www.w3.org/2000/svg">
<path d="M24.4076 4.53804H22.731V2.86152C22.731 2.53428 22.4659 2.26902 22.1385 2.26902H20.4621V0.592505C20.4621 0.265259 20.1969 0 19.8696 0H0.592505C0.265195 0 0 0.265322 0 0.592505V27.454C0 27.7813 0.265195 28.0465 0.592505 28.0465H2.26895V29.723C2.26895 30.0502 2.53415 30.3155 2.86146 30.3155H4.53791V31.9919C4.53791 32.3192 4.80311 32.5844 5.13041 32.5844H24.4075C24.7348 32.5844 25 32.3191 25 31.9919V5.13054C25.0001 4.8033 24.7349 4.53804 24.4076 4.53804ZM1.18501 26.8615V1.18507H19.277V26.8615H1.18501ZM3.45409 29.1305V28.0465H19.8695C20.1968 28.0465 20.462 27.7812 20.462 27.454V3.45409H21.546V29.1305H3.45409V29.1305ZM23.815 31.3995H5.72298V30.3156H22.1385C22.4659 30.3156 22.731 30.0502 22.731 29.723V5.72311H23.815V31.3995Z" fill="#2B564C"/>
<path d="M13.4765 6.08289H6.99216C6.66485 6.08289 6.39966 6.34821 6.39966 6.67539C6.39966 7.00257 6.66485 7.26789 6.99216 7.26789H13.4764C13.8037 7.26789 14.0689 7.00257 14.0689 6.67539C14.0689 6.34821 13.8038 6.08289 13.4765 6.08289Z" fill="#2B564C"/>
<path d="M16.153 9.02087H4.30295C3.97564 9.02087 3.71045 9.2862 3.71045 9.61338C3.71045 9.94056 3.97564 10.2059 4.30295 10.2059H16.153C16.4804 10.2059 16.7455 9.94056 16.7455 9.61338C16.7455 9.2862 16.4803 9.02087 16.153 9.02087Z" fill="#2B564C"/>
<path d="M16.153 11.962H4.30295C3.97564 11.962 3.71045 12.2273 3.71045 12.5545C3.71045 12.8817 3.97564 13.147 4.30295 13.147H16.153C16.4804 13.147 16.7455 12.8817 16.7455 12.5545C16.7455 12.2273 16.4803 11.962 16.153 11.962Z" fill="#2B564C"/>
<path d="M16.153 14.8996H4.30295C3.97564 14.8996 3.71045 15.1649 3.71045 15.4921C3.71045 15.8193 3.97564 16.0846 4.30295 16.0846H16.153C16.4804 16.0846 16.7455 15.8193 16.7455 15.4921C16.7455 15.1649 16.4803 14.8996 16.153 14.8996Z" fill="#2B564C"/>
<path d="M16.153 17.8372H4.30295C3.97564 17.8372 3.71045 18.1025 3.71045 18.4297C3.71045 18.7568 3.97564 19.0222 4.30295 19.0222H16.153C16.4804 19.0222 16.7455 18.7568 16.7455 18.4297C16.7455 18.1025 16.4803 17.8372 16.153 17.8372Z" fill="#2B564C"/>
<path d="M16.153 20.7787H4.30295C3.97564 20.7787 3.71045 21.044 3.71045 21.3712C3.71045 21.6984 3.97564 21.9637 4.30295 21.9637H16.153C16.4804 21.9637 16.7455 21.6984 16.7455 21.3712C16.7455 21.044 16.4803 20.7787 16.153 20.7787Z" fill="#2B564C"/>
</svg>
