<svg width="23" height="14" viewBox="0 0 23 14" fill="none" xmlns="http://www.w3.org/2000/svg">
<path d="M8.13846 6.72757C8.13846 8.54109 9.67179 10.0621 11.5 10.0621C13.3282 10.0621 14.8615 8.54109 14.8615 6.72757C14.8615 4.91405 13.3282 3.39304 11.5 3.39304C9.67179 3.39304 8.13846 4.91405 8.13846 6.72757ZM12.9154 13.9231C16.8667 13.0456 23 7.83908 23 7.83908C23 7.83908 18.459 0.819008 12.3846 0.0585003C12.0308 -3.35276e-07 10.8513 0 10.6154 0C4.71795 0.585006 0 8.01458 0 8.01458C0 8.01458 5.13077 13.0456 10.0256 13.8061C10.5564 14.0401 12.3256 14.0401 12.9154 13.9231ZM5.66154 7.07858C5.66154 4.03654 8.25641 1.57952 11.5 1.57952C14.7436 1.57952 17.3385 4.03654 17.3385 7.07858C17.3385 10.1206 14.7436 12.5191 11.5 12.5191C8.25641 12.5191 5.66154 10.0621 5.66154 7.07858Z" fill="#FCFBF9"/>
</svg>
