<svg width="25" height="25" viewBox="0 0 25 25" fill="none" xmlns="http://www.w3.org/2000/svg">
<path d="M6.24998 4.16658C6.93913 4.16658 7.49996 3.60575 7.49996 2.9166V1.24998C7.49996 0.560831 6.93913 0 6.24998 0C5.56083 0 5 0.560831 5 1.24998V2.9166C5 3.60575 5.56083 4.16658 6.24998 4.16658ZM5.83334 1.24998C5.83334 1.02039 6.02039 0.833336 6.24998 0.833336C6.47957 0.833336 6.66662 1.02039 6.66662 1.24998V2.9166C6.66662 3.14619 6.47957 3.33325 6.24998 3.33325C6.02039 3.33325 5.83334 3.14619 5.83334 2.9166V1.24998Z" fill="#2B564C"/>
<path d="M0.416644 4.16656C0.64662 4.16656 0.833287 3.97989 0.833287 3.74992V2.91658C0.833287 2.30907 1.47576 1.6666 2.08327 1.6666H3.74994C3.97992 1.6666 4.16658 1.47993 4.16658 1.24996C4.16658 1.01998 3.97992 0.833313 3.74994 0.833313H2.08332C1.01248 0.833313 0 1.8458 0 2.91658V3.74992C0 3.97989 0.186667 4.16656 0.416644 4.16656Z" fill="#2B564C"/>
<path d="M15.8331 24.1662H2.08332C1.47581 24.1662 0.833336 23.5238 0.833336 22.9162V5.83323H22.9163C23.1463 5.83323 23.333 5.64656 23.333 5.41658C23.333 5.18661 23.1463 4.99994 22.9163 4.99994H0.416644C0.186667 4.99994 0 5.18661 0 5.41658V22.9163C0 23.9871 1.01248 24.9996 2.08332 24.9996H15.8331C16.0631 24.9996 16.2497 24.8129 16.2497 24.5829C16.2497 24.3529 16.0631 24.1662 15.8331 24.1662Z" fill="#2B564C"/>
<path d="M22.9163 15.4164C23.1463 15.4164 23.333 15.2297 23.333 14.9997V7.08321C23.333 6.85323 23.1463 6.66656 22.9163 6.66656H2.08339C1.85341 6.66656 1.66675 6.85323 1.66675 7.08321V21.6663C1.66675 22.5855 2.41425 23.3329 3.33337 23.3329H14.9998C15.2298 23.3329 15.4165 23.1463 15.4165 22.9163C15.4165 22.6863 15.2298 22.4997 14.9998 22.4997H3.33337C2.87381 22.4997 2.50004 22.1259 2.50004 21.6663V7.49985H22.4997V14.9997C22.4997 15.2297 22.6864 15.4164 22.9163 15.4164Z" fill="#2B564C"/>
<path d="M22.9163 0.833313H21.2497C21.0197 0.833313 20.833 1.01998 20.833 1.24996C20.833 1.47993 21.0197 1.6666 21.2497 1.6666H22.9163C23.5238 1.6666 24.1663 2.30907 24.1663 2.91658V15.833C24.1663 16.063 24.3529 16.2497 24.5829 16.2497C24.8129 16.2497 24.9995 16.063 24.9995 15.833V2.91658C24.9996 1.8458 23.9871 0.833313 22.9163 0.833313Z" fill="#2B564C"/>
<path d="M14.583 4.16658C15.2721 4.16658 15.833 3.60575 15.833 2.9166V1.24998C15.833 0.560831 15.2721 0 14.583 0C13.8938 0 13.333 0.560831 13.333 1.24998V2.9166C13.333 3.60575 13.8938 4.16658 14.583 4.16658ZM14.1663 1.24998C14.1663 1.02039 14.3534 0.833336 14.5829 0.833336C14.8125 0.833336 14.9996 1.02039 14.9996 1.24998V2.9166C14.9996 3.14619 14.8125 3.33325 14.5829 3.33325C14.3534 3.33325 14.1663 3.14619 14.1663 2.9166V1.24998Z" fill="#2B564C"/>
<path d="M11.6664 9.58315C11.6664 9.35317 11.4797 9.1665 11.2498 9.1665H9.58315C9.35317 9.1665 9.1665 9.35317 9.1665 9.58315V11.2498C9.1665 11.4797 9.35317 11.6664 9.58315 11.6664H11.2498C11.4797 11.6664 11.6664 11.4797 11.6664 11.2498V9.58315ZM10.8331 10.8331H9.99979V9.99979H10.8331V10.8331Z" fill="#2B564C"/>
<path d="M18.7497 4.16658C19.4389 4.16658 19.9997 3.60575 19.9997 2.9166V1.24998C19.9997 0.560831 19.4389 0 18.7497 0C18.0606 0 17.4998 0.560831 17.4998 1.24998V2.9166C17.4998 3.60575 18.0606 4.16658 18.7497 4.16658ZM18.3331 1.24998C18.3331 1.02039 18.5201 0.833336 18.7497 0.833336C18.9793 0.833336 19.1664 1.02039 19.1664 1.24998V2.9166C19.1664 3.14619 18.9793 3.33325 18.7497 3.33325C18.5201 3.33325 18.3331 3.14619 18.3331 2.9166V1.24998Z" fill="#2B564C"/>
<path d="M10.4165 4.16658C11.1056 4.16658 11.6665 3.60575 11.6665 2.9166V1.24998C11.6665 0.560831 11.1056 0 10.4165 0C9.72733 0 9.1665 0.560831 9.1665 1.24998V2.9166C9.1665 3.60575 9.72733 4.16658 10.4165 4.16658ZM9.99984 1.24998C9.99984 1.02039 10.1869 0.833336 10.4165 0.833336C10.6461 0.833336 10.8331 1.02039 10.8331 1.24998V2.9166C10.8331 3.14619 10.6461 3.33325 10.4165 3.33325C10.1869 3.33325 9.99984 3.14619 9.99984 2.9166V1.24998Z" fill="#2B564C"/>
<path d="M20.4163 15.8331C17.8892 15.8331 15.833 17.8893 15.833 20.4163C15.833 22.9434 17.8893 24.9996 20.4163 24.9996C22.9433 24.9996 24.9996 22.9434 24.9996 20.4163C24.9996 17.8892 22.9433 15.8331 20.4163 15.8331ZM20.4163 24.1662C18.3488 24.1662 16.6663 22.4837 16.6663 20.4163C16.6663 18.3488 18.3488 16.6664 20.4163 16.6664C22.4837 16.6664 24.1662 18.3488 24.1662 20.4163C24.1662 22.4837 22.4838 24.1662 20.4163 24.1662Z" fill="#2B564C"/>
<path d="M15.833 9.58315C15.833 9.35317 15.6463 9.1665 15.4163 9.1665H13.7497C13.5197 9.1665 13.333 9.35317 13.333 9.58315V11.2498C13.333 11.4797 13.5197 11.6664 13.7497 11.6664H15.4163C15.6463 11.6664 15.8329 11.4797 15.8329 11.2498V9.58315H15.833ZM14.9996 10.8331H14.1663V9.99979H14.9996V10.8331Z" fill="#2B564C"/>
<path d="M11.6664 13.7498C11.6664 13.5198 11.4797 13.3331 11.2498 13.3331H9.58315C9.35317 13.3331 9.1665 13.5198 9.1665 13.7498V15.4164C9.1665 15.6464 9.35317 15.833 9.58315 15.833H11.2498C11.4797 15.833 11.6664 15.6464 11.6664 15.4164V13.7498ZM10.8331 14.9998H9.99979V14.1664H10.8331V14.9998Z" fill="#2B564C"/>
<path d="M7.08327 17.4997H5.41664C5.18667 17.4997 5 17.6864 5 17.9163V19.583C5 19.8129 5.18667 19.9996 5.41664 19.9996H7.08327C7.31324 19.9996 7.49991 19.8129 7.49991 19.583V17.9163C7.49991 17.6864 7.31324 17.4997 7.08327 17.4997ZM6.66657 19.1663H5.83324V18.333H6.66657V19.1663Z" fill="#2B564C"/>
<path d="M11.2498 17.4997H9.58315C9.35317 17.4997 9.1665 17.6864 9.1665 17.9163V19.583C9.1665 19.8129 9.35317 19.9996 9.58315 19.9996H11.2498C11.4797 19.9996 11.6664 19.8129 11.6664 19.583V17.9163C11.6664 17.6864 11.4797 17.4997 11.2498 17.4997ZM10.8331 19.1663H9.99979V18.333H10.8331V19.1663Z" fill="#2B564C"/>
<path d="M7.49991 13.7498C7.49991 13.5198 7.31324 13.3331 7.08327 13.3331H5.41664C5.18667 13.3331 5 13.5198 5 13.7498V15.4164C5 15.6464 5.18667 15.833 5.41664 15.833H7.08327C7.31324 15.833 7.49991 15.6464 7.49991 15.4164V13.7498ZM6.66657 14.9998H5.83324V14.1664H6.66657V14.9998Z" fill="#2B564C"/>
<path d="M20.8331 19.9996V18.7497C20.8331 18.5197 20.6464 18.333 20.4164 18.333C20.1865 18.333 19.9998 18.5197 19.9998 18.7497V20.4163C19.9998 20.6463 20.1864 20.8329 20.4164 20.8329H22.9164C23.1463 20.8329 23.333 20.6463 23.333 20.4163C23.333 20.1863 23.1463 19.9996 22.9164 19.9996H20.8331Z" fill="#2B564C"/>
<path d="M19.9997 9.58315C19.9997 9.35317 19.813 9.1665 19.583 9.1665H17.9164C17.6864 9.1665 17.4998 9.35317 17.4998 9.58315V11.2498C17.4998 11.4797 17.6864 11.6664 17.9164 11.6664H19.583C19.813 11.6664 19.9997 11.4797 19.9997 11.2498V9.58315ZM19.1663 10.8331H18.333V9.99979H19.1663V10.8331Z" fill="#2B564C"/>
<path d="M19.583 14.9998C19.813 14.9998 19.9997 14.8131 19.9997 14.5831V13.7498C19.9997 13.5198 19.813 13.3331 19.583 13.3331H17.9164C17.6864 13.3331 17.4998 13.5198 17.4998 13.7498V14.5831C17.4998 14.8131 17.6864 14.9998 17.9164 14.9998C18.1464 14.9998 18.333 14.8131 18.333 14.5831V14.1665H19.1664V14.5831C19.1663 14.8131 19.353 14.9998 19.583 14.9998Z" fill="#2B564C"/>
<path d="M14.583 18.333C14.813 18.333 14.9996 18.1463 14.9996 17.9163C14.9996 17.6864 14.813 17.4997 14.583 17.4997H13.7497C13.5197 17.4997 13.333 17.6864 13.333 17.9163V19.583C13.333 19.8129 13.5197 19.9996 13.7497 19.9996H14.583C14.813 19.9996 14.9996 19.8129 14.9996 19.583C14.9996 19.353 14.813 19.1663 14.583 19.1663H14.1663V18.333H14.583Z" fill="#2B564C"/>
<path d="M7.49991 9.58315C7.49991 9.35317 7.31324 9.1665 7.08327 9.1665H5.41664C5.18667 9.1665 5 9.35317 5 9.58315V11.2498C5 11.4797 5.18667 11.6664 5.41664 11.6664H7.08327C7.31324 11.6664 7.49991 11.4797 7.49991 11.2498V9.58315ZM6.66657 10.8331H5.83324V9.99979H6.66657V10.8331Z" fill="#2B564C"/>
<path d="M15.833 15.4164V13.7498C15.833 13.5198 15.6463 13.3331 15.4163 13.3331H13.7497C13.5197 13.3331 13.333 13.5198 13.333 13.7498V15.4164C13.333 15.6464 13.5197 15.833 13.7497 15.833H15.4163C15.6463 15.8331 15.833 15.6464 15.833 15.4164ZM14.9996 14.9998H14.1663V14.1664H14.9996V14.9998Z" fill="#2B564C"/>
</svg>
