<svg width="35" height="36" viewBox="0 0 35 36" fill="none" xmlns="http://www.w3.org/2000/svg">
<path fill-rule="evenodd" clip-rule="evenodd" d="M35 35.0065L26.0388 32.7654C22.352 34.8281 18.0435 35.4871 13.9087 34.6209C9.77392 33.7546 6.09215 31.4216 3.5433 28.0525C0.994458 24.6835 -0.24935 20.5061 0.0415528 16.2915C0.332455 12.077 2.13846 8.11006 5.12601 5.12318C8.11356 2.13631 12.0808 0.331229 16.2954 0.0412803C20.51 -0.248669 24.6873 0.996093 28.0557 3.5457C31.4242 6.09531 33.7564 9.77756 34.6217 13.9125C35.487 18.0475 34.827 22.356 32.7636 26.0423L35 35.0065ZM27.7123 7.24824C25.7496 5.28109 23.2622 3.92037 20.5471 3.32852C17.832 2.73668 15.0039 2.93873 12.4005 3.91055C9.79708 4.88236 7.52835 6.58288 5.86518 8.80908C4.202 11.0353 3.21472 13.6931 3.02106 16.4652C2.82739 19.2373 3.43566 22.0066 4.77314 24.4424C6.11062 26.8782 8.12072 28.8777 10.5637 30.202C13.0067 31.5264 15.7792 32.1197 18.5502 31.9112C21.3213 31.7026 23.9737 30.7009 26.1909 29.0258L30.4357 30.4423L29.0207 26.1944C31.1253 23.41 32.1521 19.9585 31.9117 16.4765C31.6712 12.9945 30.1797 9.71694 27.7123 7.24824ZM25.1108 19.7923C24.6594 19.7923 24.2182 19.6585 23.8429 19.4077C23.4676 19.157 23.175 18.8005 23.0023 18.3835C22.8296 17.9665 22.7844 17.5077 22.8725 17.065C22.9605 16.6223 23.1779 16.2157 23.4971 15.8965C23.8162 15.5773 24.2229 15.36 24.6656 15.2719C25.1083 15.1839 25.567 15.2291 25.984 15.4018C26.401 15.5745 26.7575 15.867 27.0083 16.2423C27.259 16.6176 27.3929 17.0588 27.3929 17.5102C27.3929 18.1155 27.1525 18.6959 26.7245 19.1239C26.2965 19.5519 25.716 19.7923 25.1108 19.7923ZM17.5037 19.7923C17.0523 19.7923 16.6111 19.6585 16.2358 19.4077C15.8605 19.157 15.5679 18.8005 15.3952 18.3835C15.2225 17.9665 15.1773 17.5077 15.2654 17.065C15.3535 16.6223 15.5708 16.2157 15.89 15.8965C16.2091 15.5773 16.6158 15.36 17.0585 15.2719C17.5012 15.1839 17.9599 15.2291 18.3769 15.4018C18.794 15.5745 19.1504 15.867 19.4012 16.2423C19.652 16.6176 19.7858 17.0588 19.7858 17.5102C19.7858 18.1155 19.5454 18.6959 19.1174 19.1239C18.6894 19.5519 18.1089 19.7923 17.5037 19.7923ZM9.8966 19.7923C9.44524 19.7923 9.00398 19.6585 8.62869 19.4077C8.2534 19.157 7.96085 18.8005 7.78812 18.3835C7.61539 17.9665 7.57025 17.5077 7.6583 17.065C7.74636 16.6223 7.96372 16.2157 8.28288 15.8965C8.60204 15.5773 9.00874 15.36 9.45143 15.2719C9.89412 15.1839 10.3529 15.2291 10.7699 15.4018C11.1869 15.5745 11.5433 15.867 11.7941 16.2423C12.0449 16.6176 12.1787 17.0588 12.1787 17.5102C12.1787 18.1155 11.9383 18.6959 11.5103 19.1239C11.0823 19.5519 10.5019 19.7923 9.8966 19.7923Z" fill="#2B564C"/>
</svg>
