<svg width="25" height="26" viewBox="0 0 25 26" fill="none" xmlns="http://www.w3.org/2000/svg">
<path d="M24.7832 10.7528L22.7812 8.75083C22.492 8.46173 22.0232 8.46173 21.734 8.75083C21.4449 9.03994 21.4449 9.50886 21.734 9.79797L22.4802 10.5441H19.0721C18.7302 7.48795 16.2966 5.05642 13.2405 4.71426V2.5279L13.9786 3.26597C14.1232 3.41053 14.3126 3.48276 14.5022 3.48276C14.6917 3.48276 14.8811 3.41044 15.0258 3.26597C15.3149 2.97687 15.3149 2.50795 15.0258 2.21884L13.0236 0.216766C12.7344 -0.0722552 12.2657 -0.0722552 11.9765 0.216766L9.9744 2.21876C9.68529 2.50795 9.68529 2.97678 9.9744 3.26589C10.2636 3.55491 10.7323 3.55491 11.0215 3.26589L11.7596 2.52781V4.71417C8.70352 5.05634 6.26993 7.48786 5.92802 10.544H2.51988L3.26604 9.79788C3.55515 9.50877 3.55515 9.03986 3.26604 8.75075C2.97676 8.46164 2.5081 8.46164 2.21891 8.75075L0.21683 10.7528C-0.0722767 11.0419 -0.0722767 11.5109 0.21683 11.8L2.21882 13.8019C2.36346 13.9465 2.5529 14.0188 2.74243 14.0188C2.93196 14.0188 3.1214 13.9465 3.26604 13.8019C3.55515 13.5128 3.55515 13.0439 3.26604 12.7548L2.53605 12.0248H6.62731C7.03621 12.0248 7.36771 11.6933 7.36771 11.2844C7.36771 8.45442 9.67007 6.15214 12.5 6.15214C15.3299 6.15214 17.6323 8.4545 17.6323 11.2844C17.6323 11.6933 17.9638 12.0248 18.3727 12.0248H22.464L21.734 12.7548C21.4449 13.0439 21.4449 13.5128 21.734 13.8019C21.8786 13.9465 22.068 14.0188 22.2576 14.0188C22.4471 14.0188 22.6365 13.9465 22.7812 13.8019L24.7832 11.8C25.0723 11.5109 25.0723 11.0419 24.7832 10.7528Z" fill="#2B564C"/>
<path d="M16.0216 11.2176C16.0216 9.27604 14.4421 7.69653 12.5005 7.69653C10.559 7.69653 8.97949 9.27604 8.97949 11.2176C8.97949 13.1591 10.559 14.7386 12.5005 14.7386C14.4421 14.7386 16.0216 13.1591 16.0216 11.2176Z" fill="#2B564C"/>
<path d="M17.2251 16.4449L17.2193 16.443L15.3569 16.1347C15.1984 16.0859 15.0291 16.1698 14.972 16.3262L12.8589 22.1242C12.737 22.4587 12.2639 22.4587 12.142 22.1242L10.0289 16.3262C9.98284 16.1998 9.86366 16.1207 9.73596 16.1207C9.70569 16.1207 7.78161 16.4426 7.78161 16.4426C6.49783 16.8703 5.64014 18.0604 5.64014 19.4062V24.2306C5.64014 24.9535 6.22626 25.5397 6.9492 25.5397H18.0506C18.7735 25.5397 19.3596 24.9535 19.3596 24.2306V19.3902C19.3595 18.0502 18.4984 16.8621 17.2251 16.4449Z" fill="#2B564C"/>
<path d="M13.3651 15.9766C13.2737 15.8769 13.14 15.8268 13.0048 15.8268H11.9961C11.8608 15.8268 11.7272 15.8769 11.6357 15.9766C11.4941 16.1309 11.4736 16.3537 11.574 16.5278L12.1132 17.3407L11.8608 19.47L12.3578 20.7922C12.4063 20.9252 12.5943 20.9252 12.6428 20.7922L13.1398 19.47L12.8875 17.3407L13.4266 16.5278C13.5272 16.3536 13.5067 16.1308 13.3651 15.9766Z" fill="#2B564C"/>
</svg>
