<svg width="17" height="20" viewBox="0 0 17 20" fill="none" xmlns="http://www.w3.org/2000/svg">
<path d="M2.68281 19.125C2.2401 19.125 1.8638 18.9701 1.55391 18.6602C1.24401 18.3503 1.08906 17.974 1.08906 17.5312V2.39062H0V0.796875H4.99375V0H12.0063V0.796875H17V2.39062H15.9109V17.5312C15.9109 17.9562 15.7516 18.3281 15.4328 18.6469C15.1141 18.9656 14.7422 19.125 14.3172 19.125H2.68281ZM14.3172 2.39062H2.68281V17.5312H14.3172V2.39062ZM5.49844 15.2469H7.09219V4.64844H5.49844V15.2469ZM9.90781 15.2469H11.5016V4.64844H9.90781V15.2469ZM2.68281 2.39062V17.5312V2.39062Z" fill="#FF0101"/>
</svg>
