<svg width="25" height="25" viewBox="0 0 25 25" fill="none" xmlns="http://www.w3.org/2000/svg">
<path d="M24.9467 21.7956L19.4302 7.21882C19.354 7.01781 19.2388 6.8338 19.0914 6.6773C18.944 6.5208 18.7672 6.39487 18.5711 6.3067C18.375 6.21854 18.1635 6.16987 17.9486 6.16347C17.7337 6.15707 17.5196 6.19306 17.3186 6.2694L14.7323 7.24337V4.84528C14.7323 4.42851 14.5667 4.02881 14.272 3.73411C13.9773 3.4394 13.5776 3.27384 13.1608 3.27384H9.00306V1.57144C9.00306 1.15467 8.8375 0.754968 8.5428 0.460265C8.24809 0.165562 7.84839 0 7.43162 0H1.63692C1.20278 0 0.786425 0.172461 0.479443 0.479443C0.172461 0.786425 0 1.20278 0 1.63692V23.7353C0 23.9524 0.0862303 24.1606 0.239721 24.3141C0.393212 24.4676 0.601391 24.5538 0.81846 24.5538H13.9138C14.1309 24.5538 14.3391 24.4676 14.4926 24.3141C14.6461 24.1606 14.7323 23.9524 14.7323 23.7353V13.3163L18.8246 24.1282C18.8627 24.2287 18.9203 24.3207 18.994 24.399C19.0677 24.4772 19.1561 24.5402 19.2542 24.5843C19.3522 24.6283 19.458 24.6527 19.5654 24.6559C19.6729 24.6591 19.7799 24.6411 19.8804 24.6029L24.472 22.8514C24.5725 22.8133 24.6645 22.7557 24.7427 22.682C24.821 22.6083 24.8839 22.5199 24.928 22.4218C24.9721 22.3238 24.9964 22.218 24.9996 22.1106C25.0028 22.0031 24.9848 21.8961 24.9467 21.7956ZM7.36614 4.77162V22.9169H1.63692V1.63692H7.36614V4.77162ZM13.0954 22.9169H9.00306V4.91076H13.0954V22.9169ZM20.0605 22.7123L14.8387 8.93758L17.8997 7.77537L23.1297 21.5501L20.0605 22.7123Z" fill="white"/>
</svg>
