<svg width="159" height="28" viewBox="0 0 159 28" fill="none" xmlns="http://www.w3.org/2000/svg">
<path d="M54.12 8.06V9.54H50.32V22H48.5V9.54H44.68V8.06H54.12ZM55.6803 16.48C55.6803 15.36 55.907 14.38 56.3603 13.54C56.8136 12.6867 57.4336 12.0267 58.2203 11.56C59.0203 11.0933 59.907 10.86 60.8803 10.86C61.8403 10.86 62.6736 11.0667 63.3803 11.48C64.087 11.8933 64.6136 12.4133 64.9603 13.04V11.04H66.8003V22H64.9603V19.96C64.6003 20.6 64.0603 21.1333 63.3403 21.56C62.6336 21.9733 61.807 22.18 60.8603 22.18C59.887 22.18 59.007 21.94 58.2203 21.46C57.4336 20.98 56.8136 20.3067 56.3603 19.44C55.907 18.5733 55.6803 17.5867 55.6803 16.48ZM64.9603 16.5C64.9603 15.6733 64.7936 14.9533 64.4603 14.34C64.127 13.7267 63.6736 13.26 63.1003 12.94C62.5403 12.6067 61.9203 12.44 61.2403 12.44C60.5603 12.44 59.9403 12.6 59.3803 12.92C58.8203 13.24 58.3736 13.7067 58.0403 14.32C57.707 14.9333 57.5403 15.6533 57.5403 16.48C57.5403 17.32 57.707 18.0533 58.0403 18.68C58.3736 19.2933 58.8203 19.7667 59.3803 20.1C59.9403 20.42 60.5603 20.58 61.2403 20.58C61.9203 20.58 62.5403 20.42 63.1003 20.1C63.6736 19.7667 64.127 19.2933 64.4603 18.68C64.7936 18.0533 64.9603 17.3267 64.9603 16.5ZM73.7559 22.18C72.9159 22.18 72.1626 22.04 71.4959 21.76C70.8293 21.4667 70.3026 21.0667 69.9159 20.56C69.5293 20.04 69.3159 19.4467 69.2759 18.78H71.1559C71.2093 19.3267 71.4626 19.7733 71.9159 20.12C72.3826 20.4667 72.9893 20.64 73.7359 20.64C74.4293 20.64 74.9759 20.4867 75.3759 20.18C75.7759 19.8733 75.9759 19.4867 75.9759 19.02C75.9759 18.54 75.7626 18.1867 75.3359 17.96C74.9093 17.72 74.2493 17.4867 73.3559 17.26C72.5426 17.0467 71.8759 16.8333 71.3559 16.62C70.8493 16.3933 70.4093 16.0667 70.0359 15.64C69.6759 15.2 69.4959 14.6267 69.4959 13.92C69.4959 13.36 69.6626 12.8467 69.9959 12.38C70.3293 11.9133 70.8026 11.5467 71.4159 11.28C72.0293 11 72.7293 10.86 73.5159 10.86C74.7293 10.86 75.7093 11.1667 76.4559 11.78C77.2026 12.3933 77.6026 13.2333 77.6559 14.3H75.8359C75.7959 13.7267 75.5626 13.2667 75.1359 12.92C74.7226 12.5733 74.1626 12.4 73.4559 12.4C72.8026 12.4 72.2826 12.54 71.8959 12.82C71.5093 13.1 71.3159 13.4667 71.3159 13.92C71.3159 14.28 71.4293 14.58 71.6559 14.82C71.8959 15.0467 72.1893 15.2333 72.5359 15.38C72.8959 15.5133 73.3893 15.6667 74.0159 15.84C74.8026 16.0533 75.4426 16.2667 75.9359 16.48C76.4293 16.68 76.8493 16.9867 77.1959 17.4C77.5559 17.8133 77.7426 18.3533 77.7559 19.02C77.7559 19.62 77.5893 20.16 77.2559 20.64C76.9226 21.12 76.4493 21.5 75.8359 21.78C75.2359 22.0467 74.5426 22.18 73.7559 22.18ZM86.4452 22L82.1452 17.16V22H80.3252V7.2H82.1452V15.9L86.3652 11.04H88.9052L83.7452 16.5L88.9252 22H86.4452ZM94.4981 22.18C93.6581 22.18 92.9048 22.04 92.2381 21.76C91.5715 21.4667 91.0448 21.0667 90.6581 20.56C90.2715 20.04 90.0581 19.4467 90.0181 18.78H91.8981C91.9515 19.3267 92.2048 19.7733 92.6581 20.12C93.1248 20.4667 93.7315 20.64 94.4781 20.64C95.1715 20.64 95.7181 20.4867 96.1181 20.18C96.5181 19.8733 96.7181 19.4867 96.7181 19.02C96.7181 18.54 96.5048 18.1867 96.0781 17.96C95.6515 17.72 94.9915 17.4867 94.0981 17.26C93.2848 17.0467 92.6181 16.8333 92.0981 16.62C91.5915 16.3933 91.1515 16.0667 90.7781 15.64C90.4181 15.2 90.2381 14.6267 90.2381 13.92C90.2381 13.36 90.4048 12.8467 90.7381 12.38C91.0715 11.9133 91.5448 11.5467 92.1581 11.28C92.7715 11 93.4715 10.86 94.2581 10.86C95.4715 10.86 96.4515 11.1667 97.1981 11.78C97.9448 12.3933 98.3448 13.2333 98.3981 14.3H96.5781C96.5381 13.7267 96.3048 13.2667 95.8781 12.92C95.4648 12.5733 94.9048 12.4 94.1981 12.4C93.5448 12.4 93.0248 12.54 92.6381 12.82C92.2515 13.1 92.0581 13.4667 92.0581 13.92C92.0581 14.28 92.1715 14.58 92.3981 14.82C92.6381 15.0467 92.9315 15.2333 93.2781 15.38C93.6381 15.5133 94.1315 15.6667 94.7581 15.84C95.5448 16.0533 96.1848 16.2667 96.6781 16.48C97.1715 16.68 97.5915 16.9867 97.9381 17.4C98.2981 17.8133 98.4848 18.3533 98.4981 19.02C98.4981 19.62 98.3315 20.16 97.9981 20.64C97.6648 21.12 97.1915 21.5 96.5781 21.78C95.9781 22.0467 95.2848 22.18 94.4981 22.18Z" fill="#2B564C"/>
<path d="M12.625 22.7812C12.9583 22.7812 13.2396 22.6667 13.4688 22.4375C13.6979 22.2083 13.8125 21.9271 13.8125 21.5938C13.8125 21.2604 13.6979 20.9792 13.4688 20.75C13.2396 20.5208 12.9583 20.4062 12.625 20.4062C12.2917 20.4062 12.0104 20.5208 11.7812 20.75C11.5521 20.9792 11.4375 21.2604 11.4375 21.5938C11.4375 21.9271 11.5521 22.2083 11.7812 22.4375C12.0104 22.6667 12.2917 22.7813 12.625 22.7812ZM11.5312 18.2188H13.375C13.375 17.6771 13.4427 17.1823 13.5781 16.7344C13.7135 16.2865 14.1354 15.7708 14.8438 15.1875C15.4896 14.6458 15.9479 14.1146 16.2188 13.5938C16.4896 13.0729 16.625 12.5 16.625 11.875C16.625 10.7708 16.2656 9.88542 15.5469 9.21875C14.8281 8.55208 13.875 8.21875 12.6875 8.21875C11.6667 8.21875 10.7656 8.47396 9.98438 8.98438C9.20312 9.49479 8.63542 10.1979 8.28125 11.0938L9.9375 11.7188C10.1667 11.1354 10.5104 10.6823 10.9688 10.3594C11.4271 10.0365 11.9688 9.875 12.5938 9.875C13.3021 9.875 13.875 10.0677 14.3125 10.4531C14.75 10.8385 14.9688 11.3333 14.9688 11.9375C14.9688 12.3958 14.8333 12.8281 14.5625 13.2344C14.2917 13.6406 13.8958 14.0625 13.375 14.5C12.75 15.0417 12.2865 15.5781 11.9844 16.1094C11.6823 16.6406 11.5312 17.3438 11.5312 18.2188ZM12.5 28C10.7917 28 9.17708 27.6719 7.65625 27.0156C6.13542 26.3594 4.80729 25.4635 3.67188 24.3281C2.53646 23.1927 1.64062 21.8646 0.984375 20.3438C0.328125 18.8229 0 17.2083 0 15.5C0 13.7708 0.328125 12.1458 0.984375 10.625C1.64062 9.10417 2.53646 7.78125 3.67188 6.65625C4.80729 5.53125 6.13542 4.64062 7.65625 3.98437C9.17708 3.32812 10.7917 3 12.5 3C14.2292 3 15.8542 3.32812 17.375 3.98437C18.8958 4.64062 20.2188 5.53125 21.3438 6.65625C22.4688 7.78125 23.3594 9.10417 24.0156 10.625C24.6719 12.1458 25 13.7708 25 15.5C25 17.2083 24.6719 18.8229 24.0156 20.3438C23.3594 21.8646 22.4688 23.1927 21.3438 24.3281C20.2188 25.4635 18.8958 26.3594 17.375 27.0156C15.8542 27.6719 14.2292 28 12.5 28ZM12.5 26.125C15.4583 26.125 17.9688 25.0885 20.0312 23.0156C22.0938 20.9427 23.125 18.4375 23.125 15.5C23.125 12.5417 22.0938 10.0312 20.0312 7.96875C17.9688 5.90625 15.4583 4.875 12.5 4.875C9.5625 4.875 7.05729 5.90625 4.98438 7.96875C2.91146 10.0312 1.875 12.5417 1.875 15.5C1.875 18.4375 2.91146 20.9427 4.98438 23.0156C7.05729 25.0885 9.5625 26.125 12.5 26.125Z" fill="#2B564C"/>
</svg>
