<svg width="25" height="25" viewBox="0 0 25 25" fill="none" xmlns="http://www.w3.org/2000/svg">
<path d="M12.625 19.7812C12.9583 19.7812 13.2396 19.6667 13.4688 19.4375C13.6979 19.2083 13.8125 18.9271 13.8125 18.5938C13.8125 18.2604 13.6979 17.9792 13.4688 17.75C13.2396 17.5208 12.9583 17.4062 12.625 17.4062C12.2917 17.4062 12.0104 17.5208 11.7812 17.75C11.5521 17.9792 11.4375 18.2604 11.4375 18.5938C11.4375 18.9271 11.5521 19.2083 11.7812 19.4375C12.0104 19.6667 12.2917 19.7813 12.625 19.7812ZM11.5312 15.2188H13.375C13.375 14.6771 13.4427 14.1823 13.5781 13.7344C13.7135 13.2865 14.1354 12.7708 14.8438 12.1875C15.4896 11.6458 15.9479 11.1146 16.2188 10.5938C16.4896 10.0729 16.625 9.5 16.625 8.875C16.625 7.77083 16.2656 6.88542 15.5469 6.21875C14.8281 5.55208 13.875 5.21875 12.6875 5.21875C11.6667 5.21875 10.7656 5.47396 9.98438 5.98438C9.20312 6.49479 8.63542 7.19792 8.28125 8.09375L9.9375 8.71875C10.1667 8.13542 10.5104 7.68229 10.9688 7.35938C11.4271 7.03646 11.9688 6.875 12.5938 6.875C13.3021 6.875 13.875 7.06771 14.3125 7.45312C14.75 7.83854 14.9688 8.33333 14.9688 8.9375C14.9688 9.39583 14.8333 9.82812 14.5625 10.2344C14.2917 10.6406 13.8958 11.0625 13.375 11.5C12.75 12.0417 12.2865 12.5781 11.9844 13.1094C11.6823 13.6406 11.5312 14.3438 11.5312 15.2188ZM12.5 25C10.7917 25 9.17708 24.6719 7.65625 24.0156C6.13542 23.3594 4.80729 22.4635 3.67188 21.3281C2.53646 20.1927 1.64062 18.8646 0.984375 17.3438C0.328125 15.8229 0 14.2083 0 12.5C0 10.7708 0.328125 9.14583 0.984375 7.625C1.64062 6.10417 2.53646 4.78125 3.67188 3.65625C4.80729 2.53125 6.13542 1.64062 7.65625 0.984375C9.17708 0.328125 10.7917 0 12.5 0C14.2292 0 15.8542 0.328125 17.375 0.984375C18.8958 1.64062 20.2188 2.53125 21.3438 3.65625C22.4688 4.78125 23.3594 6.10417 24.0156 7.625C24.6719 9.14583 25 10.7708 25 12.5C25 14.2083 24.6719 15.8229 24.0156 17.3438C23.3594 18.8646 22.4688 20.1927 21.3438 21.3281C20.2188 22.4635 18.8958 23.3594 17.375 24.0156C15.8542 24.6719 14.2292 25 12.5 25ZM12.5 23.125C15.4583 23.125 17.9688 22.0885 20.0312 20.0156C22.0938 17.9427 23.125 15.4375 23.125 12.5C23.125 9.54167 22.0938 7.03125 20.0312 4.96875C17.9688 2.90625 15.4583 1.875 12.5 1.875C9.5625 1.875 7.05729 2.90625 4.98438 4.96875C2.91146 7.03125 1.875 9.54167 1.875 12.5C1.875 15.4375 2.91146 17.9427 4.98438 20.0156C7.05729 22.0885 9.5625 23.125 12.5 23.125Z" fill="#2B564C"/>
</svg>
